<svg width="966" height="319" viewBox="0 0 966 319" fill="none" xmlns="http://www.w3.org/2000/svg">
<path fill-rule="evenodd" clip-rule="evenodd" d="M261.493 159.101C261.493 177.735 256.515 195.206 247.817 210.258C246.569 210.088 245.295 210 244 210C238.731 210 233.803 211.455 229.594 213.986C167.323 188.031 126.445 143.585 101.626 89.3361C103.778 85.3711 105 80.8283 105 76C105 74.7474 104.918 73.5141 104.758 72.3051C120.508 62.4238 139.137 56.7101 159.101 56.7101C215.65 56.7101 261.493 102.552 261.493 159.101ZM77.5643 103.994C104.854 161.975 149.433 210.095 216.007 238.643C216.047 240.418 216.252 242.152 216.608 243.83C200.216 254.978 180.419 261.493 159.101 261.493C102.552 261.493 56.7101 215.65 56.7101 159.101C56.7101 138.693 62.6806 119.68 72.9703 103.712C74.2862 103.902 75.6316 104 77 104C77.1885 104 77.3766 103.998 77.5643 103.994ZM289.493 159.101C289.493 184.255 282.37 207.746 270.031 227.666C271.302 230.863 272 234.35 272 238C272 253.464 259.464 266 244 266C241.069 266 238.243 265.55 235.588 264.714C214.102 280.301 187.675 289.493 159.101 289.493C87.0882 289.493 28.7101 231.114 28.7101 159.101C28.7101 132.122 36.9039 107.057 50.9386 86.2579C49.6873 83.0814 49 79.621 49 76C49 60.536 61.536 48 77 48C80.7402 48 84.3092 48.7334 87.5709 50.0641C108.108 36.5641 132.687 28.7101 159.101 28.7101C231.114 28.7101 289.493 87.0882 289.493 159.101Z" fill="white"/>
<path d="M333.41 209V111.72H363.24V125.02H363.81C371.283 114.253 381.29 108.87 393.83 108.87C404.343 108.87 412.577 112.29 418.53 119.13C424.61 125.843 427.65 134.71 427.65 145.73V209H396.68V152C396.68 146.68 395.35 142.5 392.69 139.46C390.157 136.293 386.42 134.71 381.48 134.71C376.413 134.71 372.297 136.61 369.13 140.41C365.963 144.21 364.38 149.15 364.38 155.23V209H333.41ZM470.269 182.02C473.816 187.34 478.883 190 485.469 190C492.056 190 497.123 187.34 500.669 182.02C504.343 176.7 506.179 169.543 506.179 160.55C506.179 151.557 504.343 144.4 500.669 139.08C497.123 133.633 492.056 130.91 485.469 130.91C478.883 130.91 473.816 133.57 470.269 138.89C466.723 144.21 464.949 151.43 464.949 160.55C464.949 169.543 466.723 176.7 470.269 182.02ZM523.089 197.41C513.589 207.163 501.113 212.04 485.659 212.04C470.206 212.04 457.666 207.163 448.039 197.41C438.413 187.657 433.599 175.37 433.599 160.55C433.599 145.73 438.413 133.443 448.039 123.69C457.666 113.937 470.206 109.06 485.659 109.06C501.113 109.06 513.589 113.937 523.089 123.69C532.716 133.443 537.529 145.73 537.529 160.55C537.529 175.37 532.716 187.657 523.089 197.41ZM586.189 212.04C573.522 212.04 563.262 207.417 555.409 198.17C547.555 188.923 543.629 176.32 543.629 160.36C543.629 145.16 547.555 132.81 555.409 123.31C563.389 113.683 573.649 108.87 586.189 108.87C597.842 108.87 606.899 113.493 613.359 122.74H613.929V73.15H644.899V209H615.259V195.89H614.879C608.545 206.657 598.982 212.04 586.189 212.04ZM594.169 187.53C600.502 187.53 605.505 185.06 609.179 180.12C612.852 175.053 614.689 168.467 614.689 160.36C614.689 151.873 612.979 145.097 609.559 140.03C606.139 134.837 601.135 132.24 594.549 132.24C588.469 132.24 583.655 134.773 580.109 139.84C576.689 144.907 574.979 151.62 574.979 159.98C574.979 168.467 576.689 175.18 580.109 180.12C583.529 185.06 588.215 187.53 594.169 187.53ZM707.198 211.85C691.491 211.85 678.888 207.037 669.388 197.41C660.015 187.657 655.328 175.243 655.328 160.17C655.328 145.477 659.951 133.253 669.198 123.5C678.571 113.747 690.605 108.87 705.298 108.87C718.598 108.87 729.681 112.923 738.548 121.03C750.201 131.67 755.901 147.44 755.648 168.34H685.728C686.741 175.053 689.085 180.31 692.758 184.11C696.431 187.783 701.371 189.62 707.578 189.62C715.558 189.62 720.941 186.39 723.728 179.93H753.938C751.658 189.303 746.211 196.967 737.598 202.92C729.111 208.873 718.978 211.85 707.198 211.85ZM685.918 149.91H724.298C723.791 144.083 721.828 139.46 718.408 136.04C715.115 132.62 710.935 130.91 705.868 130.91C694.848 130.91 688.198 137.243 685.918 149.91ZM762.216 209V73.15H792.806V144.59L821.686 111.72H857.406L823.206 148.2L861.396 209H825.486L802.116 169.29L792.806 179.17V209H762.216ZM864.735 209V111.72H895.705V209H864.735ZM864.735 98.23V73.15H895.705V98.23H864.735ZM945.335 210.14C935.455 210.14 927.791 208.177 922.345 204.25C917.025 200.197 914.365 193.23 914.365 183.35V131.1H901.445V111.72H914.365V80.94H944.575V111.72H962.245V131.1H944.575V176.7C944.575 180.247 945.461 182.717 947.235 184.11C949.135 185.503 951.858 186.2 955.405 186.2C956.418 186.2 957.748 186.2 959.395 186.2C961.041 186.073 961.991 186.01 962.245 186.01V208.62C958.698 209.633 953.061 210.14 945.335 210.14Z" fill="white"/>
</svg>
